<svg width="1621" height="101" viewBox="0 0 1621 101" fill="none" xmlns="http://www.w3.org/2000/svg">
<g clip-path="url(#clip0_1_151)">
<path d="M151.84 23.27C147.9 36.83 142.35 49.8 137.13 62.88C132.29 75.01 127.13 87.01 121.5 99.07C113.02 73.22 105.4 47.29 99.8899 20.78C106.59 20.3 113.16 22.48 119.87 21.74L132.82 22.67L134.88 22.73L151.84 23.27V23.27Z" fill="#F6A6BC"/>
<path d="M222.01 20.84C218.33 39.57 212.95 57.86 207.75 76.2C205.59 83.83 203.24 91.41 200.52 100.52C195.33 88.16 190.6 77.28 186.19 66.27C180.57 52.26 174.73 38.32 170.32 23.86C187.55 22.85 204.78 21.84 222.01 20.83V20.84Z" fill="#C9D994"/>
<path d="M291.83 9.89001C290.48 20.53 289.25 31.19 287.75 41.81C285.54 57.5 282.91 73.13 279.79 88.66C279.7 89.09 279.49 89.5 279.07 90.68C274.86 83.5 270.83 76.93 267.09 70.19C258.16 54.06 249.51 37.78 241.5 21.17C241.15 20.44 241.03 19.6 240.81 18.81C246.8 17.79 252.79 16.77 258.78 15.74C269.91 14.44 280.84 12.02 291.83 9.88V9.89001Z" fill="#CBE9E4"/>
<path d="M80.9099 18.86C79.6399 25.52 75.7999 31.07 72.7199 36.87C64.3199 52.67 55.4799 68.24 46.8399 83.91C45.7499 85.89 44.7599 87.91 42.4599 89.83C36.9599 62.96 33.3999 36.4 29.9399 9.82001C39.8199 11.61 49.6899 13.43 59.5699 15.19C66.6799 16.46 73.7999 17.64 80.9099 18.86V18.86Z" fill="#CBE9E4"/>
<path d="M258.79 15.75C252.8 16.77 246.81 17.79 240.82 18.82C234.55 19.49 228.28 20.17 222.02 20.84C204.79 21.85 187.56 22.86 170.33 23.87C164.21 22.45 158.02 22.96 151.85 23.27C146.2 23.09 140.54 22.91 134.89 22.73C134.89 22.12 134.89 21.51 134.89 20.91C148.65 22.02 162.44 21.67 176.23 21.69C191.17 21.72 205.95 19.58 220.81 18.56C233.51 17.69 246.13 15.56 258.79 13.99C258.79 14.58 258.79 15.17 258.79 15.75V15.75Z" fill="#94D3C7"/>
<path d="M80.91 18.86C73.8 17.64 66.68 16.45 59.57 15.19C49.69 13.43 39.82 11.61 29.94 9.82C23.99 8.52 18.03 7.22 12.08 5.92C8.26 4.04 4.18 3.22 0 2.79C0.2 -0.199996 2.18 0.970004 3.62 1.35C24.95 6.9 46.58 11.02 68.32 14.52C76.47 15.83 84.68 16.81 92.87 17.93C92.87 18.5 92.87 19.08 92.87 19.65C88.92 18.9 84.93 18.6 80.91 18.85V18.86Z" fill="#98D5CB"/>
<path d="M258.79 15.75C258.79 15.16 258.79 14.57 258.79 13.99C280.15 9.92 301.57 6.14 322.52 0.149999C324.06 -0.290001 324.73 0.239999 324.74 1.77C319.75 3.14 314.76 4.5 309.77 5.87C303.79 7.21 297.81 8.55 291.83 9.89C280.85 12.02 269.92 14.45 258.78 15.75H258.79Z" fill="#9AD4CB"/>
<path d="M92.8701 19.66C92.8701 19.09 92.8701 18.51 92.8701 17.94C101.93 18.4 110.99 18.89 119.94 20.52C119.92 20.93 119.89 21.34 119.87 21.75C113.16 22.49 106.59 20.31 99.8901 20.79C97.5501 20.42 95.2101 20.04 92.8601 19.67L92.8701 19.66Z" fill="#A0D2CB"/>
<path d="M119.88 21.74C119.9 21.33 119.92 20.92 119.95 20.51C124.25 20.63 128.54 20.76 132.84 20.88C132.84 21.47 132.84 22.07 132.83 22.66L119.88 21.73V21.74Z" fill="#8AD0C5"/>
<path d="M132.82 22.67C132.82 22.08 132.82 21.48 132.83 20.89C133.51 20.89 134.2 20.89 134.88 20.91C134.88 21.52 134.88 22.13 134.88 22.74C134.19 22.72 133.51 22.7 132.82 22.68V22.67Z" fill="#AFD2CD"/>
</g>
<g clip-path="url(#clip1_1_151)">
<path d="M475.84 23.27C471.9 36.83 466.35 49.8 461.13 62.88C456.29 75.01 451.13 87.01 445.5 99.07C437.02 73.22 429.4 47.29 423.89 20.78C430.59 20.3 437.16 22.48 443.87 21.74L456.82 22.67L458.88 22.73L475.84 23.27V23.27Z" fill="#F6A6BC"/>
<path d="M546.01 20.84C542.33 39.57 536.95 57.86 531.75 76.2C529.59 83.83 527.24 91.41 524.52 100.52C519.33 88.16 514.6 77.28 510.19 66.27C504.57 52.26 498.73 38.32 494.32 23.86C511.55 22.85 528.78 21.84 546.01 20.83V20.84Z" fill="#C9D994"/>
<path d="M615.83 9.89001C614.48 20.53 613.25 31.19 611.75 41.81C609.54 57.5 606.91 73.13 603.79 88.66C603.7 89.09 603.49 89.5 603.07 90.68C598.86 83.5 594.83 76.93 591.09 70.19C582.16 54.06 573.51 37.78 565.5 21.17C565.15 20.44 565.03 19.6 564.81 18.81C570.8 17.79 576.79 16.77 582.78 15.74C593.91 14.44 604.84 12.02 615.83 9.88V9.89001Z" fill="#CBE9E4"/>
<path d="M404.91 18.86C403.64 25.52 399.8 31.07 396.72 36.87C388.32 52.67 379.48 68.24 370.84 83.91C369.75 85.89 368.76 87.91 366.46 89.83C360.96 62.96 357.4 36.4 353.94 9.82001C363.82 11.61 373.69 13.43 383.57 15.19C390.68 16.46 397.8 17.64 404.91 18.86V18.86Z" fill="#CBE9E4"/>
<path d="M582.79 15.75C576.8 16.77 570.81 17.79 564.82 18.82C558.55 19.49 552.28 20.17 546.02 20.84C528.79 21.85 511.56 22.86 494.33 23.87C488.21 22.45 482.02 22.96 475.85 23.27C470.2 23.09 464.54 22.91 458.89 22.73C458.89 22.12 458.89 21.51 458.89 20.91C472.65 22.02 486.44 21.67 500.23 21.69C515.17 21.72 529.95 19.58 544.81 18.56C557.51 17.69 570.13 15.56 582.79 13.99C582.79 14.58 582.79 15.17 582.79 15.75V15.75Z" fill="#94D3C7"/>
<path d="M404.91 18.86C397.8 17.64 390.68 16.45 383.57 15.19C373.69 13.43 363.82 11.61 353.94 9.82C347.99 8.52 342.03 7.22 336.08 5.92C332.26 4.04 328.18 3.22 324 2.79C324.2 -0.199996 326.18 0.970004 327.62 1.35C348.95 6.9 370.58 11.02 392.32 14.52C400.47 15.83 408.68 16.81 416.87 17.93C416.87 18.5 416.87 19.08 416.87 19.65C412.92 18.9 408.93 18.6 404.91 18.85V18.86Z" fill="#98D5CB"/>
<path d="M582.79 15.75C582.79 15.16 582.79 14.57 582.79 13.99C604.15 9.92 625.57 6.14 646.52 0.149999C648.06 -0.290001 648.73 0.239999 648.74 1.77C643.75 3.14 638.76 4.5 633.77 5.87C627.79 7.21 621.81 8.55 615.83 9.89C604.85 12.02 593.92 14.45 582.78 15.75H582.79Z" fill="#9AD4CB"/>
<path d="M416.87 19.66C416.87 19.09 416.87 18.51 416.87 17.94C425.93 18.4 434.99 18.89 443.94 20.52C443.92 20.93 443.89 21.34 443.87 21.75C437.16 22.49 430.59 20.31 423.89 20.79C421.55 20.42 419.21 20.04 416.86 19.67L416.87 19.66Z" fill="#A0D2CB"/>
<path d="M443.88 21.74C443.9 21.33 443.92 20.92 443.95 20.51C448.25 20.63 452.54 20.76 456.84 20.88C456.84 21.47 456.84 22.07 456.83 22.66L443.88 21.73V21.74Z" fill="#8AD0C5"/>
<path d="M456.82 22.67C456.82 22.08 456.82 21.48 456.83 20.89C457.51 20.89 458.2 20.89 458.88 20.91C458.88 21.52 458.88 22.13 458.88 22.74C458.19 22.72 457.51 22.7 456.82 22.68V22.67Z" fill="#AFD2CD"/>
</g>
<g clip-path="url(#clip2_1_151)">
<path d="M799.84 23.27C795.9 36.83 790.35 49.8 785.13 62.88C780.29 75.01 775.13 87.01 769.5 99.07C761.02 73.22 753.4 47.29 747.89 20.78C754.59 20.3 761.16 22.48 767.87 21.74L780.82 22.67L782.88 22.73L799.84 23.27V23.27Z" fill="#F6A6BC"/>
<path d="M870.01 20.84C866.33 39.57 860.95 57.86 855.75 76.2C853.59 83.83 851.24 91.41 848.52 100.52C843.33 88.16 838.6 77.28 834.19 66.27C828.57 52.26 822.73 38.32 818.32 23.86C835.55 22.85 852.78 21.84 870.01 20.83V20.84Z" fill="#C9D994"/>
<path d="M939.83 9.89001C938.48 20.53 937.25 31.19 935.75 41.81C933.54 57.5 930.91 73.13 927.79 88.66C927.7 89.09 927.49 89.5 927.07 90.68C922.86 83.5 918.83 76.93 915.09 70.19C906.16 54.06 897.51 37.78 889.5 21.17C889.15 20.44 889.03 19.6 888.81 18.81C894.8 17.79 900.79 16.77 906.78 15.74C917.91 14.44 928.84 12.02 939.83 9.88V9.89001Z" fill="#CBE9E4"/>
<path d="M728.91 18.86C727.64 25.52 723.8 31.07 720.72 36.87C712.32 52.67 703.48 68.24 694.84 83.91C693.75 85.89 692.76 87.91 690.46 89.83C684.96 62.96 681.4 36.4 677.94 9.82001C687.82 11.61 697.69 13.43 707.57 15.19C714.68 16.46 721.8 17.64 728.91 18.86V18.86Z" fill="#CBE9E4"/>
<path d="M906.79 15.75C900.8 16.77 894.81 17.79 888.82 18.82C882.55 19.49 876.28 20.17 870.02 20.84C852.79 21.85 835.56 22.86 818.33 23.87C812.21 22.45 806.02 22.96 799.85 23.27C794.2 23.09 788.54 22.91 782.89 22.73C782.89 22.12 782.89 21.51 782.89 20.91C796.65 22.02 810.44 21.67 824.23 21.69C839.17 21.72 853.95 19.58 868.81 18.56C881.51 17.69 894.13 15.56 906.79 13.99C906.79 14.58 906.79 15.17 906.79 15.75V15.75Z" fill="#94D3C7"/>
<path d="M728.91 18.86C721.8 17.64 714.68 16.45 707.57 15.19C697.69 13.43 687.82 11.61 677.94 9.82C671.99 8.52 666.03 7.22 660.08 5.92C656.26 4.04 652.18 3.22 648 2.79C648.2 -0.199996 650.18 0.970004 651.62 1.35C672.95 6.9 694.58 11.02 716.32 14.52C724.47 15.83 732.68 16.81 740.87 17.93C740.87 18.5 740.87 19.08 740.87 19.65C736.92 18.9 732.93 18.6 728.91 18.85V18.86Z" fill="#98D5CB"/>
<path d="M906.79 15.75C906.79 15.16 906.79 14.57 906.79 13.99C928.15 9.92 949.57 6.14 970.52 0.149999C972.06 -0.290001 972.73 0.239999 972.74 1.77C967.75 3.14 962.76 4.5 957.77 5.87C951.79 7.21 945.81 8.55 939.83 9.89C928.85 12.02 917.92 14.45 906.78 15.75H906.79Z" fill="#9AD4CB"/>
<path d="M740.87 19.66C740.87 19.09 740.87 18.51 740.87 17.94C749.93 18.4 758.99 18.89 767.94 20.52C767.92 20.93 767.89 21.34 767.87 21.75C761.16 22.49 754.59 20.31 747.89 20.79C745.55 20.42 743.21 20.04 740.86 19.67L740.87 19.66Z" fill="#A0D2CB"/>
<path d="M767.88 21.74C767.9 21.33 767.92 20.92 767.95 20.51C772.25 20.63 776.54 20.76 780.84 20.88C780.84 21.47 780.84 22.07 780.83 22.66L767.88 21.73V21.74Z" fill="#8AD0C5"/>
<path d="M780.82 22.67C780.82 22.08 780.82 21.48 780.83 20.89C781.51 20.89 782.2 20.89 782.88 20.91C782.88 21.52 782.88 22.13 782.88 22.74C782.19 22.72 781.51 22.7 780.82 22.68V22.67Z" fill="#AFD2CD"/>
</g>
<g clip-path="url(#clip3_1_151)">
<path d="M1123.84 23.27C1119.9 36.83 1114.35 49.8 1109.13 62.88C1104.29 75.01 1099.13 87.01 1093.5 99.07C1085.02 73.22 1077.4 47.29 1071.89 20.78C1078.59 20.3 1085.16 22.48 1091.87 21.74L1104.82 22.67L1106.88 22.73L1123.84 23.27V23.27Z" fill="#F6A6BC"/>
<path d="M1194.01 20.84C1190.33 39.57 1184.95 57.86 1179.75 76.2C1177.59 83.83 1175.24 91.41 1172.52 100.52C1167.33 88.16 1162.6 77.28 1158.19 66.27C1152.57 52.26 1146.73 38.32 1142.32 23.86C1159.55 22.85 1176.78 21.84 1194.01 20.83V20.84Z" fill="#C9D994"/>
<path d="M1263.83 9.89001C1262.48 20.53 1261.25 31.19 1259.75 41.81C1257.54 57.5 1254.91 73.13 1251.79 88.66C1251.7 89.09 1251.49 89.5 1251.07 90.68C1246.86 83.5 1242.83 76.93 1239.09 70.19C1230.16 54.06 1221.51 37.78 1213.5 21.17C1213.15 20.44 1213.03 19.6 1212.81 18.81C1218.8 17.79 1224.79 16.77 1230.78 15.74C1241.91 14.44 1252.84 12.02 1263.83 9.88V9.89001Z" fill="#CBE9E4"/>
<path d="M1052.91 18.86C1051.64 25.52 1047.8 31.07 1044.72 36.87C1036.32 52.67 1027.48 68.24 1018.84 83.91C1017.75 85.89 1016.76 87.91 1014.46 89.83C1008.96 62.96 1005.4 36.4 1001.94 9.82001C1011.82 11.61 1021.69 13.43 1031.57 15.19C1038.68 16.46 1045.8 17.64 1052.91 18.86V18.86Z" fill="#CBE9E4"/>
<path d="M1230.79 15.75C1224.8 16.77 1218.81 17.79 1212.82 18.82C1206.55 19.49 1200.28 20.17 1194.02 20.84C1176.79 21.85 1159.56 22.86 1142.33 23.87C1136.21 22.45 1130.02 22.96 1123.85 23.27C1118.2 23.09 1112.54 22.91 1106.89 22.73C1106.89 22.12 1106.89 21.51 1106.89 20.91C1120.65 22.02 1134.44 21.67 1148.23 21.69C1163.17 21.72 1177.95 19.58 1192.81 18.56C1205.51 17.69 1218.13 15.56 1230.79 13.99C1230.79 14.58 1230.79 15.17 1230.79 15.75V15.75Z" fill="#94D3C7"/>
<path d="M1052.91 18.86C1045.8 17.64 1038.68 16.45 1031.57 15.19C1021.69 13.43 1011.82 11.61 1001.94 9.82C995.99 8.52 990.03 7.22 984.08 5.92C980.26 4.04 976.18 3.22 972 2.79C972.2 -0.199996 974.18 0.970004 975.62 1.35C996.95 6.9 1018.58 11.02 1040.32 14.52C1048.47 15.83 1056.68 16.81 1064.87 17.93C1064.87 18.5 1064.87 19.08 1064.87 19.65C1060.92 18.9 1056.93 18.6 1052.91 18.85V18.86Z" fill="#98D5CB"/>
<path d="M1230.79 15.75C1230.79 15.16 1230.79 14.57 1230.79 13.99C1252.15 9.92 1273.57 6.14 1294.52 0.149999C1296.06 -0.290001 1296.73 0.239999 1296.74 1.77C1291.75 3.14 1286.76 4.5 1281.77 5.87C1275.79 7.21 1269.81 8.55 1263.83 9.89C1252.85 12.02 1241.92 14.45 1230.78 15.75H1230.79Z" fill="#9AD4CB"/>
<path d="M1064.87 19.66C1064.87 19.09 1064.87 18.51 1064.87 17.94C1073.93 18.4 1082.99 18.89 1091.94 20.52C1091.92 20.93 1091.89 21.34 1091.87 21.75C1085.16 22.49 1078.59 20.31 1071.89 20.79C1069.55 20.42 1067.21 20.04 1064.86 19.67L1064.87 19.66Z" fill="#A0D2CB"/>
<path d="M1091.88 21.74C1091.9 21.33 1091.92 20.92 1091.95 20.51C1096.25 20.63 1100.54 20.76 1104.84 20.88C1104.84 21.47 1104.84 22.07 1104.83 22.66L1091.88 21.73V21.74Z" fill="#8AD0C5"/>
<path d="M1104.82 22.67C1104.82 22.08 1104.82 21.48 1104.83 20.89C1105.51 20.89 1106.2 20.89 1106.88 20.91C1106.88 21.52 1106.88 22.13 1106.88 22.74C1106.19 22.72 1105.51 22.7 1104.82 22.68V22.67Z" fill="#AFD2CD"/>
</g>
<g clip-path="url(#clip4_1_151)">
<path d="M1447.84 23.27C1443.9 36.83 1438.35 49.8 1433.13 62.88C1428.29 75.01 1423.13 87.01 1417.5 99.07C1409.02 73.22 1401.4 47.29 1395.89 20.78C1402.59 20.3 1409.16 22.48 1415.87 21.74L1428.82 22.67L1430.88 22.73L1447.84 23.27V23.27Z" fill="#F6A6BC"/>
<path d="M1518.01 20.84C1514.33 39.57 1508.95 57.86 1503.75 76.2C1501.59 83.83 1499.24 91.41 1496.52 100.52C1491.33 88.16 1486.6 77.28 1482.19 66.27C1476.57 52.26 1470.73 38.32 1466.32 23.86C1483.55 22.85 1500.78 21.84 1518.01 20.83V20.84Z" fill="#C9D994"/>
<path d="M1587.83 9.89001C1586.48 20.53 1585.25 31.19 1583.75 41.81C1581.54 57.5 1578.91 73.13 1575.79 88.66C1575.7 89.09 1575.49 89.5 1575.07 90.68C1570.86 83.5 1566.83 76.93 1563.09 70.19C1554.16 54.06 1545.51 37.78 1537.5 21.17C1537.15 20.44 1537.03 19.6 1536.81 18.81C1542.8 17.79 1548.79 16.77 1554.78 15.74C1565.91 14.44 1576.84 12.02 1587.83 9.88V9.89001Z" fill="#CBE9E4"/>
<path d="M1376.91 18.86C1375.64 25.52 1371.8 31.07 1368.72 36.87C1360.32 52.67 1351.48 68.24 1342.84 83.91C1341.75 85.89 1340.76 87.91 1338.46 89.83C1332.96 62.96 1329.4 36.4 1325.94 9.82001C1335.82 11.61 1345.69 13.43 1355.57 15.19C1362.68 16.46 1369.8 17.64 1376.91 18.86V18.86Z" fill="#CBE9E4"/>
<path d="M1554.79 15.75C1548.8 16.77 1542.81 17.79 1536.82 18.82C1530.55 19.49 1524.28 20.17 1518.02 20.84C1500.79 21.85 1483.56 22.86 1466.33 23.87C1460.21 22.45 1454.02 22.96 1447.85 23.27C1442.2 23.09 1436.54 22.91 1430.89 22.73C1430.89 22.12 1430.89 21.51 1430.89 20.91C1444.65 22.02 1458.44 21.67 1472.23 21.69C1487.17 21.72 1501.95 19.58 1516.81 18.56C1529.51 17.69 1542.13 15.56 1554.79 13.99C1554.79 14.58 1554.79 15.17 1554.79 15.75V15.75Z" fill="#94D3C7"/>
<path d="M1376.91 18.86C1369.8 17.64 1362.68 16.45 1355.57 15.19C1345.69 13.43 1335.82 11.61 1325.94 9.82C1319.99 8.52 1314.03 7.22 1308.08 5.92C1304.26 4.04 1300.18 3.22 1296 2.79C1296.2 -0.199996 1298.18 0.970004 1299.62 1.35C1320.95 6.9 1342.58 11.02 1364.32 14.52C1372.47 15.83 1380.68 16.81 1388.87 17.93C1388.87 18.5 1388.87 19.08 1388.87 19.65C1384.92 18.9 1380.93 18.6 1376.91 18.85V18.86Z" fill="#98D5CB"/>
<path d="M1554.79 15.75C1554.79 15.16 1554.79 14.57 1554.79 13.99C1576.15 9.92 1597.57 6.14 1618.52 0.149999C1620.06 -0.290001 1620.73 0.239999 1620.74 1.77C1615.75 3.14 1610.76 4.5 1605.77 5.87C1599.79 7.21 1593.81 8.55 1587.83 9.89C1576.85 12.02 1565.92 14.45 1554.78 15.75H1554.79Z" fill="#9AD4CB"/>
<path d="M1388.87 19.66C1388.87 19.09 1388.87 18.51 1388.87 17.94C1397.93 18.4 1406.99 18.89 1415.94 20.52C1415.92 20.93 1415.89 21.34 1415.87 21.75C1409.16 22.49 1402.59 20.31 1395.89 20.79C1393.55 20.42 1391.21 20.04 1388.86 19.67L1388.87 19.66Z" fill="#A0D2CB"/>
<path d="M1415.88 21.74C1415.9 21.33 1415.92 20.92 1415.95 20.51C1420.25 20.63 1424.54 20.76 1428.84 20.88C1428.84 21.47 1428.84 22.07 1428.83 22.66L1415.88 21.73V21.74Z" fill="#8AD0C5"/>
<path d="M1428.82 22.67C1428.82 22.08 1428.82 21.48 1428.83 20.89C1429.51 20.89 1430.2 20.89 1430.88 20.91C1430.88 21.52 1430.88 22.13 1430.88 22.74C1430.19 22.72 1429.51 22.7 1428.82 22.68V22.67Z" fill="#AFD2CD"/>
</g>
<defs>
<clipPath id="clip0_1_151">
<rect width="324.74" height="100.52" fill="white"/>
</clipPath>
<clipPath id="clip1_1_151">
<rect width="324.74" height="100.52" fill="white" transform="translate(324)"/>
</clipPath>
<clipPath id="clip2_1_151">
<rect width="324.74" height="100.52" fill="white" transform="translate(648)"/>
</clipPath>
<clipPath id="clip3_1_151">
<rect width="324.74" height="100.52" fill="white" transform="translate(972)"/>
</clipPath>
<clipPath id="clip4_1_151">
<rect width="324.74" height="100.52" fill="white" transform="translate(1296)"/>
</clipPath>
</defs>
</svg>
