<svg width="36" height="34" viewBox="0 0 36 34" fill="none" xmlns="http://www.w3.org/2000/svg">
<path d="M35.1137 12.7043C35.1521 19.7472 29.5457 25.4846 22.5876 25.522C15.6316 25.5595 9.94526 19.9163 9.90988 12.9413C9.87348 5.83362 15.4486 0.0881305 22.4107 0.0577472C29.391 0.026351 35.0763 5.68677 35.1137 12.7043Z" fill="white"/>
<path d="M6.17966 17.0579C6.17966 22.5239 6.17258 27.9889 6.19179 33.4548C6.19381 33.9116 6.07553 34.0068 5.63781 33.9997C3.9213 33.9724 2.20276 33.9784 0.486245 33.9967C0.130407 33.9997 0 33.941 0 33.5379C0.0121308 22.5057 0.0111199 11.4735 0 0.441278C0 0.0797156 0.0990686 -0.000293955 0.44682 0.00274438C2.19771 0.0209744 3.9496 0.0270511 5.69948 -0.000293955C6.12001 -0.00637063 6.18774 0.129342 6.18673 0.509134C6.17561 6.02574 6.17864 11.5413 6.17864 17.0579H6.17966Z" fill="white"/>
</svg>
